<?xml version="1.0" encoding="utf-8"?>
<!-- Generator: Adobe Illustrator 16.0.0, SVG Export Plug-In . SVG Version: 6.00 Build 0)  -->
<!DOCTYPE svg PUBLIC "-//W3C//DTD SVG 1.1//EN" "http://www.w3.org/Graphics/SVG/1.1/DTD/svg11.dtd">
<svg version="1.1" id="Layer_1" xmlns="http://www.w3.org/2000/svg" xmlns:xlink="http://www.w3.org/1999/xlink" x="0px" y="0px"
	 width="32px" height="32px" viewBox="0 0 32 32" enable-background="new 0 0 32 32" xml:space="preserve">
<path fill="none" stroke="#000000" stroke-miterlimit="10" d="M29.397,27.263c0,1.789-1.45,3.239-3.239,3.239H5.008
	c-1.789,0-3.239-1.45-3.239-3.239V5.213c0-1.79,1.45-3.24,3.239-3.24h21.15c1.789,0,3.239,1.45,3.239,3.24V27.263z"/>
<line fill="none" stroke="#000000" stroke-miterlimit="10" x1="6.359" y1="14.482" x2="6.359" y2="24.742"/>
<line fill="none" stroke="#000000" stroke-miterlimit="10" x1="24.718" y1="24.742" x2="6.359" y2="24.742"/>
<line fill="none" stroke="#000000" stroke-miterlimit="10" x1="24.718" y1="14.482" x2="24.718" y2="24.742"/>
<line fill="none" stroke="#000000" stroke-miterlimit="10" x1="6.359" y1="14.482" x2="15.538" y2="5.303"/>
<line fill="none" stroke="#000000" stroke-miterlimit="10" x1="24.718" y1="14.482" x2="15.538" y2="5.303"/>
<line fill="none" stroke="#000000" stroke-miterlimit="10" x1="15.538" y1="17.453" x2="24.718" y2="24.742"/>
<line fill="none" stroke="#000000" stroke-miterlimit="10" x1="6.359" y1="24.742" x2="15.538" y2="17.453"/>
<line fill="none" stroke="#000000" stroke-miterlimit="10" x1="6.359" y1="14.482" x2="13.688" y2="18.92"/>
<line fill="none" stroke="#000000" stroke-miterlimit="10" x1="17.388" y1="18.92" x2="24.718" y2="14.482"/>
<path fill="none" stroke="#000000" stroke-miterlimit="10" d="M65.577,27.127c0,1.79-1.451,3.24-3.239,3.24h-21.15
	c-1.789,0-3.24-1.45-3.24-3.24V5.078c0-1.789,1.451-3.24,3.24-3.24h21.15c1.788,0,3.239,1.451,3.239,3.24V27.127z"/>
<circle fill="none" stroke="#000000" stroke-miterlimit="10" cx="51.763" cy="9.823" r="1.479"/>
<path fill="none" stroke="#000000" stroke-miterlimit="10" d="M46.563,9.823c-0.807-2.756,2.328-5.199,5.2-5.199
	c2.87,0,6.004,2.443,5.197,5.199"/>
<line fill="none" stroke="#000000" stroke-miterlimit="10" x1="51.763" y1="27.582" x2="56.961" y2="9.823"/>
<line fill="none" stroke="#000000" stroke-miterlimit="10" x1="51.763" y1="27.582" x2="46.563" y2="9.823"/>
<path fill="none" stroke="#000000" stroke-miterlimit="10" d="M99.326,27.127c0,1.79-1.45,3.24-3.238,3.24h-21.15
	c-1.79,0-3.24-1.45-3.24-3.24V5.078c0-1.789,1.45-3.24,3.24-3.24h21.15c1.788,0,3.238,1.451,3.238,3.24V27.127z"/>
<path fill="none" stroke="#000000" stroke-miterlimit="10" d="M82.771,11.712c-1.357-0.503-2.255-1.37-2.255-2.354
	c0-1.555,2.237-2.815,4.996-2.815c2.758,0,4.994,1.26,4.994,2.815c0,0.985-0.896,1.851-2.254,2.354"/>
<line fill="none" stroke="#000000" stroke-miterlimit="10" x1="82.771" y1="11.711" x2="82.771" y2="17.844"/>
<line fill="none" stroke="#000000" stroke-miterlimit="10" x1="88.253" y1="11.711" x2="88.253" y2="17.844"/>
<line fill="none" stroke="#000000" stroke-miterlimit="10" x1="82.771" y1="17.844" x2="80.517" y2="20.004"/>
<line fill="none" stroke="#000000" stroke-miterlimit="10" x1="88.253" y1="17.844" x2="90.507" y2="20.004"/>
<line fill="none" stroke="#000000" stroke-miterlimit="10" x1="80.517" y1="20.004" x2="90.507" y2="20.004"/>
<line fill="none" stroke="#000000" stroke-miterlimit="10" x1="85.513" y1="28.373" x2="86.457" y2="20.004"/>
<line fill="none" stroke="#000000" stroke-miterlimit="10" x1="85.513" y1="28.373" x2="84.657" y2="20.004"/>
<path fill="none" stroke="#000000" stroke-miterlimit="10" d="M-43.272,27.263c0,1.789-1.452,3.239-3.241,3.239h-21.149
	c-1.789,0-3.24-1.45-3.24-3.239V5.213c0-1.79,1.451-3.24,3.24-3.24h21.149c1.789,0,3.241,1.45,3.241,3.24V27.263z"/>
<line fill="none" stroke="#000000" stroke-miterlimit="10" x1="-50.833" y1="27.592" x2="-57.988" y2="15.462"/>
<circle fill="none" stroke="#000000" stroke-miterlimit="10" cx="-60.284" cy="11.107" r="4.995"/>
<path fill="none" stroke="#000000" stroke-miterlimit="10" d="M131.413,27.127c0,1.79-1.45,3.24-3.24,3.24h-21.149
	c-1.79,0-3.24-1.45-3.24-3.24V5.078c0-1.789,1.45-3.24,3.24-3.24h21.149c1.79,0,3.24,1.451,3.24,3.24V27.127z"/>
<rect x="113.909" y="4.493" fill="none" stroke="#000000" stroke-miterlimit="10" width="7.379" height="7.38"/>
<polyline fill="none" stroke="#000000" stroke-miterlimit="10" points="113.909,20.288 109.588,20.288 109.588,11.918 
	125.608,11.918 125.608,20.288 121.288,20.288 "/>
<rect x="113.909" y="17.317" fill="none" stroke="#000000" stroke-miterlimit="10" width="7.379" height="5.939"/>
<path fill="none" stroke="#000000" stroke-miterlimit="10" d="M-6.981,27.263c0,1.789-1.451,3.239-3.241,3.239h-21.148
	c-1.789,0-3.24-1.45-3.24-3.239V5.213c0-1.789,1.451-3.24,3.24-3.24h21.148c1.79,0,3.241,1.451,3.241,3.24V27.263z"/>
<path fill="none" stroke="#000000" stroke-miterlimit="10" d="M-13.867,16.238c0,4.992-2.72,9.038-6.074,9.038
	c-1.544,0-6.075,0-6.075,0s0.001-6.344,0-9.038c0-4.991,2.72-9.038,6.075-9.038c1.803,0,6.074,0,6.074,0
	S-13.867,13.928-13.867,16.238z"/>
<line fill="none" stroke="#000000" stroke-miterlimit="10" x1="-23.159" y1="11.243" x2="-16.252" y2="11.243"/>
<line fill="none" stroke="#000000" stroke-miterlimit="10" x1="-23.159" y1="13.178" x2="-16.252" y2="13.178"/>
<line fill="none" stroke="#000000" stroke-miterlimit="10" x1="-23.159" y1="15.113" x2="-16.252" y2="15.113"/>
<line fill="none" stroke="#000000" stroke-miterlimit="10" x1="-23.159" y1="17.049" x2="-16.252" y2="17.049"/>
<line fill="none" stroke="#000000" stroke-miterlimit="10" x1="-23.159" y1="18.96" x2="-16.252" y2="18.96"/>
<line fill="none" stroke="#000000" stroke-miterlimit="10" x1="-23.159" y1="20.873" x2="-16.252" y2="20.873"/>
<path fill="none" stroke="#000000" stroke-miterlimit="10" d="M47.431,61.923c0,1.789-1.451,3.24-3.24,3.24H23.041
	c-1.79,0-3.241-1.451-3.241-3.24V39.874c0-1.79,1.451-3.24,3.241-3.24H44.19c1.789,0,3.24,1.45,3.24,3.24V61.923z"/>
<g>
	<g>
		<g>
			<path d="M41.982,50.898c0,0-0.012,0.242-0.035,0.695c-0.036,0.451-0.132,1.114-0.388,1.921c-0.252,0.808-0.719,1.744-1.457,2.665
				c-0.74,0.918-1.801,1.78-3.124,2.378c-1.325,0.57-2.937,0.873-4.585,0.609c-1.648-0.219-3.308-1.017-4.613-2.277
				c-1.286-1.271-2.235-3.008-2.454-4.909c-0.244-1.888,0.155-3.897,1.21-5.528c1.031-1.635,2.636-2.912,4.453-3.494
				c1.811-0.59,3.79-0.553,5.488,0.087c1.719,0.604,3.119,1.796,4.063,3.158c0.076,0.124,0.147,0.241,0.214,0.35
				c0.258,0.395,0.376,0.687,0.376,0.687s-0.441,0.027-0.865,0.086c-0.436,0.062-0.86,0.158-0.86,0.158
				c1.192,0.684,2.215,1.873,2.895,3.415c0.626-1.532,0.898-3.452,0.47-5.404c0,0-0.239,0.391-0.505,0.754
				c-0.273,0.373-0.563,0.713-0.563,0.713s-0.129-0.313-0.404-0.738c-0.071-0.116-0.149-0.242-0.231-0.375
				c-1.015-1.467-2.521-2.746-4.37-3.399c-1.83-0.687-3.956-0.728-5.905-0.093c-1.956,0.628-3.682,2-4.791,3.759
				c-1.134,1.756-1.565,3.92-1.303,5.947c0.237,2.046,1.258,3.917,2.642,5.282c1.403,1.356,3.19,2.215,4.964,2.45
				c1.771,0.282,3.505-0.041,4.932-0.656c1.426-0.643,2.564-1.571,3.36-2.557c0.795-0.99,1.296-1.999,1.568-2.868
				c0.276-0.868,0.378-1.582,0.417-2.067c0.024-0.487,0.038-0.747,0.038-0.747H41.982z"/>
		</g>
	</g>
</g>
<g>
	<g>
		<g>
			<path d="M25.248,50.898c0,0,0.012-0.242,0.035-0.695c0.036-0.451,0.132-1.114,0.388-1.921c0.252-0.808,0.719-1.745,1.457-2.666
				c0.74-0.917,1.8-1.779,3.124-2.377c1.325-0.57,2.937-0.873,4.585-0.609c1.648,0.219,3.308,1.017,4.612,2.277
				c1.286,1.271,2.236,3.008,2.455,4.909c0.244,1.888-0.155,3.897-1.21,5.528c-1.031,1.635-2.636,2.912-4.453,3.494
				c-1.811,0.59-3.79,0.553-5.488-0.086c-1.719-0.605-3.119-1.797-4.063-3.159c-0.076-0.124-0.148-0.241-0.215-0.35
				c-0.257-0.395-0.375-0.687-0.375-0.687s0.441-0.027,0.865-0.086c0.436-0.062,0.86-0.158,0.86-0.158
				c-1.192-0.684-2.215-1.873-2.895-3.415c-0.626,1.532-0.898,3.452-0.47,5.404c0,0,0.238-0.391,0.505-0.754
				c0.272-0.373,0.563-0.713,0.563-0.713s0.129,0.313,0.404,0.738c0.071,0.116,0.149,0.242,0.23,0.375
				c1.016,1.467,2.521,2.746,4.371,3.399c1.83,0.687,3.955,0.728,5.905,0.093c1.956-0.628,3.682-2,4.791-3.759
				c1.133-1.756,1.565-3.92,1.302-5.947c-0.236-2.046-1.257-3.917-2.641-5.282c-1.403-1.356-3.19-2.215-4.964-2.45
				c-1.771-0.282-3.505,0.041-4.932,0.656c-1.426,0.642-2.564,1.57-3.36,2.557c-0.795,0.99-1.296,1.999-1.568,2.868
				c-0.276,0.868-0.378,1.582-0.417,2.067c-0.024,0.487-0.038,0.747-0.038,0.747H25.248z"/>
		</g>
	</g>
</g>
<rect x="23.505" y="49.548" fill="#FFFFFF" stroke="#FFFFFF" stroke-miterlimit="10" width="2.745" height="1.621"/>
<rect x="41.145" y="50.583" fill="#FFFFFF" stroke="#FFFFFF" stroke-miterlimit="10" width="2.746" height="1.62"/>
<path fill="#010101" d="M-14.969,25.744c0,0.47-0.191,0.85-0.425,0.85l0,0c-0.235,0-0.426-0.38-0.426-0.85v-4.972
	c0-0.47,0.19-0.851,0.426-0.851l0,0c0.233,0,0.425,0.381,0.425,0.851V25.744z"/>
<path fill="#010101" d="M-17.392,23.449c-0.385,0-0.695-0.139-0.695-0.308l0,0c0-0.171,0.311-0.309,0.695-0.309h4.074
	c0.385,0,0.697,0.138,0.697,0.309l0,0c0,0.169-0.313,0.308-0.697,0.308H-17.392z"/>
<path fill="none" stroke="#000000" stroke-miterlimit="10" d="M11.811,61.924c0,1.789-1.45,3.239-3.241,3.239h-21.148
	c-1.789,0-3.24-1.45-3.24-3.239v-22.05c0-1.79,1.451-3.24,3.24-3.24H8.569c1.791,0,3.241,1.45,3.241,3.24V61.924z"/>
<g>
	<g>
		<path fill-rule="evenodd" clip-rule="evenodd" fill="#FFFFFF" d="M-11.143,61.464c0-6.865,0-13.73,0-20.601
			c6.875,0,13.753,0,20.637,0c0,6.864,0,13.732,0,20.601C2.62,61.464-4.26,61.464-11.143,61.464z M-5.001,44.696
			c-0.336,0.019-0.651-0.005-0.946,0.06c-0.691,0.151-1.073,0.696-1.073,1.474c-0.002,3.515-0.001,7.029,0,10.544
			c0,0.07,0.008,0.14,0.013,0.212c0.064,0.003,0.104,0.007,0.145,0.007c3.628,0,7.257,0.001,10.886-0.002
			c0.146-0.001,0.296-0.019,0.438-0.054c0.525-0.131,1.037-0.623,1.034-1.471c-0.013-3.508-0.006-7.016-0.006-10.523
			c0-0.07,0-0.142,0-0.212c-1.129,0-2.229,0-3.347,0c0,1.17,0,2.321,0,3.48c-2.387,0-4.756,0-7.143,0
			C-5.001,47.047-5.001,45.896-5.001,44.696z M0.805,47.569c0-0.956,0-1.897,0-2.845c-0.525,0-1.038,0-1.556,0
			c0,0.954,0,1.896,0,2.845C-0.231,47.569,0.275,47.569,0.805,47.569z"/>
		<path fill-rule="evenodd" clip-rule="evenodd" d="M-5.001,44.696c0,1.199,0,2.351,0,3.515c2.387,0,4.756,0,7.143,0
			c0-1.159,0-2.311,0-3.48c1.117,0,2.218,0,3.347,0c0,0.07,0,0.142,0,0.212c0,3.508-0.007,7.016,0.006,10.523
			c0.003,0.848-0.509,1.34-1.034,1.471c-0.142,0.035-0.292,0.053-0.438,0.054c-3.629,0.003-7.258,0.002-10.886,0.002
			c-0.04,0-0.08-0.004-0.145-0.007c-0.005-0.072-0.013-0.142-0.013-0.212c-0.001-3.515-0.002-7.029,0-10.544
			c0-0.777,0.382-1.322,1.073-1.474C-5.652,44.691-5.337,44.715-5.001,44.696z M-4.999,55.103c0.102,0,0.168,0,0.234,0
			c2.213,0,4.425,0,6.638,0c0.559,0,0.824-0.267,0.824-0.827c0-1.234,0-2.468,0-3.701c0-0.071,0-0.143,0-0.227
			c-0.096,0-0.162,0-0.229,0c-2.213,0-4.425-0.001-6.638,0c-0.583,0-0.829,0.247-0.83,0.832c0,1.228,0,2.454,0,3.682
			C-4.999,54.934-4.999,55.006-4.999,55.103z"/>
		<path fill-rule="evenodd" clip-rule="evenodd" d="M0.805,47.569c-0.529,0-1.036,0-1.556,0c0-0.949,0-1.891,0-2.845
			c0.518,0,1.03,0,1.556,0C0.805,45.672,0.805,46.613,0.805,47.569z"/>
		<path fill-rule="evenodd" clip-rule="evenodd" fill="#FFFFFF" d="M-4.999,55.103c0-0.097,0-0.169,0-0.241c0-1.228,0-2.454,0-3.682
			c0.001-0.585,0.247-0.832,0.83-0.832c2.213-0.001,4.425,0,6.638,0c0.066,0,0.133,0,0.229,0c0,0.084,0,0.155,0,0.227
			c0,1.233,0,2.467,0,3.701c0,0.561-0.266,0.827-0.824,0.827c-2.213,0-4.425,0-6.638,0C-4.831,55.103-4.897,55.103-4.999,55.103z"/>
	</g>
</g>
</svg>
