<?xml version="1.0" encoding="utf-8"?>
<!-- Generator: Adobe Illustrator 16.0.0, SVG Export Plug-In . SVG Version: 6.00 Build 0)  -->
<!DOCTYPE svg PUBLIC "-//W3C//DTD SVG 1.1//EN" "http://www.w3.org/Graphics/SVG/1.1/DTD/svg11.dtd">
<svg version="1.1" id="Layer_1" xmlns="http://www.w3.org/2000/svg" xmlns:xlink="http://www.w3.org/1999/xlink" x="0px" y="0px"
	 width="32px" height="32px" viewBox="0 0 32 32" enable-background="new 0 0 32 32" xml:space="preserve">
<path fill="none" stroke="#000000" stroke-miterlimit="10" d="M66.634,26.763c0,1.789-1.45,3.239-3.239,3.239h-21.15
	c-1.789,0-3.239-1.45-3.239-3.239V4.713c0-1.79,1.45-3.24,3.239-3.24h21.15c1.789,0,3.239,1.45,3.239,3.24V26.763z"/>
<line fill="none" stroke="#000000" stroke-miterlimit="10" x1="43.596" y1="13.982" x2="43.596" y2="24.242"/>
<line fill="none" stroke="#000000" stroke-miterlimit="10" x1="61.954" y1="24.242" x2="43.596" y2="24.242"/>
<line fill="none" stroke="#000000" stroke-miterlimit="10" x1="61.954" y1="13.982" x2="61.954" y2="24.242"/>
<line fill="none" stroke="#000000" stroke-miterlimit="10" x1="43.596" y1="13.982" x2="52.774" y2="4.803"/>
<line fill="none" stroke="#000000" stroke-miterlimit="10" x1="61.954" y1="13.982" x2="52.774" y2="4.803"/>
<line fill="none" stroke="#000000" stroke-miterlimit="10" x1="52.774" y1="16.953" x2="61.954" y2="24.242"/>
<line fill="none" stroke="#000000" stroke-miterlimit="10" x1="43.596" y1="24.242" x2="52.774" y2="16.953"/>
<line fill="none" stroke="#000000" stroke-miterlimit="10" x1="43.596" y1="13.982" x2="50.925" y2="18.42"/>
<line fill="none" stroke="#000000" stroke-miterlimit="10" x1="54.624" y1="18.42" x2="61.954" y2="13.982"/>
<path fill="none" stroke="#000000" stroke-miterlimit="10" d="M102.813,26.627c0,1.79-1.451,3.24-3.239,3.24h-21.15
	c-1.789,0-3.24-1.45-3.24-3.24V4.578c0-1.789,1.451-3.24,3.24-3.24h21.15c1.788,0,3.239,1.451,3.239,3.24V26.627z"/>
<circle fill="none" stroke="#000000" stroke-miterlimit="10" cx="88.999" cy="9.323" r="1.479"/>
<path fill="none" stroke="#000000" stroke-miterlimit="10" d="M83.8,9.323c-0.807-2.756,2.328-5.199,5.2-5.199
	c2.87,0,6.004,2.443,5.197,5.199"/>
<line fill="none" stroke="#000000" stroke-miterlimit="10" x1="88.999" y1="27.082" x2="94.197" y2="9.323"/>
<line fill="none" stroke="#000000" stroke-miterlimit="10" x1="88.999" y1="27.082" x2="83.8" y2="9.323"/>
<path fill="none" stroke="#000000" stroke-miterlimit="10" d="M136.563,26.627c0,1.79-1.45,3.24-3.238,3.24h-21.15
	c-1.79,0-3.24-1.45-3.24-3.24V4.578c0-1.789,1.45-3.24,3.24-3.24h21.15c1.788,0,3.238,1.451,3.238,3.24V26.627z"/>
<path fill="none" stroke="#000000" stroke-miterlimit="10" d="M120.008,11.212c-1.357-0.503-2.255-1.37-2.255-2.354
	c0-1.555,2.237-2.815,4.996-2.815c2.758,0,4.994,1.26,4.994,2.815c0,0.985-0.896,1.851-2.254,2.354"/>
<line fill="none" stroke="#000000" stroke-miterlimit="10" x1="120.008" y1="11.211" x2="120.008" y2="17.344"/>
<line fill="none" stroke="#000000" stroke-miterlimit="10" x1="125.489" y1="11.211" x2="125.489" y2="17.344"/>
<line fill="none" stroke="#000000" stroke-miterlimit="10" x1="120.008" y1="17.344" x2="117.753" y2="19.504"/>
<line fill="none" stroke="#000000" stroke-miterlimit="10" x1="125.489" y1="17.344" x2="127.743" y2="19.504"/>
<line fill="none" stroke="#000000" stroke-miterlimit="10" x1="117.753" y1="19.504" x2="127.743" y2="19.504"/>
<line fill="none" stroke="#000000" stroke-miterlimit="10" x1="122.749" y1="27.873" x2="123.693" y2="19.504"/>
<line fill="none" stroke="#000000" stroke-miterlimit="10" x1="122.749" y1="27.873" x2="121.894" y2="19.504"/>
<path fill="none" stroke="#000000" stroke-miterlimit="10" d="M-6.036,26.763c0,1.789-1.452,3.239-3.241,3.239h-21.149
	c-1.789,0-3.24-1.45-3.24-3.239V4.713c0-1.79,1.451-3.24,3.24-3.24h21.149c1.789,0,3.241,1.45,3.241,3.24V26.763z"/>
<line fill="none" stroke="#000000" stroke-miterlimit="10" x1="-13.597" y1="27.092" x2="-20.752" y2="14.962"/>
<circle fill="none" stroke="#000000" stroke-miterlimit="10" cx="-23.047" cy="10.607" r="4.995"/>
<path fill="none" stroke="#000000" stroke-miterlimit="10" d="M168.649,26.627c0,1.79-1.45,3.24-3.24,3.24H144.26
	c-1.79,0-3.24-1.45-3.24-3.24V4.578c0-1.789,1.45-3.24,3.24-3.24h21.149c1.79,0,3.24,1.451,3.24,3.24V26.627z"/>
<rect x="151.146" y="3.993" fill="none" stroke="#000000" stroke-miterlimit="10" width="7.379" height="7.38"/>
<polyline fill="none" stroke="#000000" stroke-miterlimit="10" points="151.146,19.788 146.824,19.788 146.824,11.418 
	162.845,11.418 162.845,19.788 158.524,19.788 "/>
<rect x="151.146" y="16.817" fill="none" stroke="#000000" stroke-miterlimit="10" width="7.379" height="5.939"/>
<path fill="none" stroke="#000000" stroke-miterlimit="10" d="M30.255,26.763c0,1.789-1.451,3.239-3.241,3.239H5.865
	c-1.789,0-3.24-1.45-3.24-3.239V4.713c0-1.789,1.451-3.24,3.24-3.24h21.148c1.79,0,3.241,1.451,3.241,3.24V26.763z"/>
<path fill="none" stroke="#000000" stroke-miterlimit="10" d="M23.369,15.738c0,4.992-2.72,9.038-6.074,9.038
	c-1.544,0-6.075,0-6.075,0s0.001-6.344,0-9.038c0-4.991,2.72-9.038,6.075-9.038c1.803,0,6.074,0,6.074,0
	S23.369,13.428,23.369,15.738z"/>
<line fill="none" stroke="#000000" stroke-miterlimit="10" x1="14.077" y1="10.743" x2="20.984" y2="10.743"/>
<line fill="none" stroke="#000000" stroke-miterlimit="10" x1="14.077" y1="12.678" x2="20.984" y2="12.678"/>
<line fill="none" stroke="#000000" stroke-miterlimit="10" x1="14.077" y1="14.613" x2="20.984" y2="14.613"/>
<line fill="none" stroke="#000000" stroke-miterlimit="10" x1="14.077" y1="16.549" x2="20.984" y2="16.549"/>
<line fill="none" stroke="#000000" stroke-miterlimit="10" x1="14.077" y1="18.46" x2="20.984" y2="18.46"/>
<line fill="none" stroke="#000000" stroke-miterlimit="10" x1="14.077" y1="20.373" x2="20.984" y2="20.373"/>
<path fill="none" stroke="#000000" stroke-miterlimit="10" d="M84.667,61.423c0,1.789-1.451,3.24-3.24,3.24H60.277
	c-1.79,0-3.241-1.451-3.241-3.24V39.374c0-1.79,1.451-3.24,3.241-3.24h21.149c1.789,0,3.24,1.45,3.24,3.24V61.423z"/>
<g>
	<g>
		<g>
			<path d="M79.219,50.398c0,0-0.012,0.242-0.035,0.695c-0.036,0.451-0.132,1.114-0.388,1.921c-0.252,0.808-0.719,1.744-1.457,2.665
				c-0.74,0.918-1.801,1.78-3.124,2.378c-1.325,0.57-2.937,0.873-4.585,0.609c-1.648-0.219-3.308-1.017-4.613-2.277
				c-1.286-1.271-2.235-3.008-2.454-4.909c-0.244-1.888,0.155-3.897,1.21-5.528c1.031-1.635,2.636-2.912,4.453-3.494
				c1.811-0.59,3.79-0.553,5.488,0.087c1.719,0.604,3.119,1.796,4.063,3.158c0.076,0.124,0.147,0.241,0.214,0.35
				c0.258,0.395,0.376,0.687,0.376,0.687s-0.441,0.027-0.865,0.086c-0.436,0.062-0.86,0.158-0.86,0.158
				c1.192,0.684,2.215,1.873,2.895,3.415c0.626-1.532,0.898-3.452,0.47-5.404c0,0-0.239,0.391-0.505,0.754
				c-0.273,0.373-0.563,0.713-0.563,0.713s-0.129-0.313-0.404-0.738c-0.071-0.116-0.149-0.242-0.231-0.375
				c-1.015-1.467-2.521-2.746-4.37-3.399c-1.83-0.687-3.956-0.728-5.905-0.093c-1.956,0.628-3.682,2-4.791,3.759
				c-1.134,1.756-1.565,3.92-1.303,5.947c0.237,2.046,1.258,3.917,2.642,5.282c1.403,1.356,3.19,2.215,4.964,2.45
				c1.771,0.282,3.505-0.041,4.932-0.656c1.426-0.643,2.564-1.571,3.36-2.557c0.795-0.99,1.296-1.999,1.568-2.868
				c0.276-0.868,0.378-1.582,0.417-2.067c0.024-0.487,0.038-0.747,0.038-0.747H79.219z"/>
		</g>
	</g>
</g>
<g>
	<g>
		<g>
			<path d="M62.484,50.398c0,0,0.012-0.242,0.035-0.695c0.036-0.451,0.132-1.114,0.388-1.921c0.252-0.808,0.719-1.745,1.457-2.666
				c0.74-0.917,1.8-1.779,3.124-2.377c1.325-0.57,2.937-0.873,4.585-0.609c1.648,0.219,3.308,1.017,4.612,2.277
				c1.286,1.271,2.236,3.008,2.455,4.909c0.244,1.888-0.155,3.897-1.21,5.528c-1.031,1.635-2.636,2.912-4.453,3.494
				c-1.811,0.59-3.79,0.553-5.488-0.086c-1.719-0.605-3.119-1.797-4.063-3.159c-0.076-0.124-0.148-0.241-0.215-0.35
				c-0.257-0.395-0.375-0.687-0.375-0.687s0.441-0.027,0.865-0.086c0.436-0.062,0.86-0.158,0.86-0.158
				c-1.192-0.684-2.215-1.873-2.895-3.415c-0.626,1.532-0.898,3.452-0.47,5.404c0,0,0.238-0.391,0.505-0.754
				c0.272-0.373,0.563-0.713,0.563-0.713s0.129,0.313,0.404,0.738c0.071,0.116,0.149,0.242,0.23,0.375
				c1.016,1.467,2.521,2.746,4.371,3.399c1.83,0.687,3.955,0.728,5.905,0.093c1.956-0.628,3.682-2,4.791-3.759
				c1.133-1.756,1.565-3.92,1.302-5.947c-0.236-2.046-1.257-3.917-2.641-5.282c-1.403-1.356-3.19-2.215-4.964-2.45
				c-1.771-0.282-3.505,0.041-4.932,0.656c-1.426,0.642-2.564,1.57-3.36,2.557c-0.795,0.99-1.296,1.999-1.568,2.868
				c-0.276,0.868-0.378,1.582-0.417,2.067c-0.024,0.487-0.038,0.747-0.038,0.747H62.484z"/>
		</g>
	</g>
</g>
<rect x="60.741" y="49.048" fill="#FFFFFF" stroke="#FFFFFF" stroke-miterlimit="10" width="2.745" height="1.621"/>
<rect x="78.381" y="50.083" fill="#FFFFFF" stroke="#FFFFFF" stroke-miterlimit="10" width="2.746" height="1.62"/>
<path fill="#010101" d="M22.268,25.244c0,0.47-0.191,0.85-0.425,0.85l0,0c-0.235,0-0.426-0.38-0.426-0.85v-4.972
	c0-0.47,0.19-0.851,0.426-0.851l0,0c0.233,0,0.425,0.381,0.425,0.851V25.244z"/>
<path fill="#010101" d="M19.845,22.949c-0.385,0-0.695-0.139-0.695-0.308l0,0c0-0.171,0.311-0.309,0.695-0.309h4.074
	c0.385,0,0.697,0.138,0.697,0.309l0,0c0,0.169-0.313,0.308-0.697,0.308H19.845z"/>
<path fill="none" stroke="#000000" stroke-miterlimit="10" d="M49.047,61.424c0,1.789-1.45,3.239-3.241,3.239H24.657
	c-1.789,0-3.24-1.45-3.24-3.239v-22.05c0-1.79,1.451-3.24,3.24-3.24h21.148c1.791,0,3.241,1.45,3.241,3.24V61.424z"/>
<g>
	<g>
		<path fill-rule="evenodd" clip-rule="evenodd" fill="#FFFFFF" d="M26.094,60.964c0-6.865,0-13.73,0-20.601
			c6.875,0,13.753,0,20.637,0c0,6.864,0,13.732,0,20.601C39.856,60.964,32.977,60.964,26.094,60.964z M32.235,44.196
			c-0.336,0.019-0.651-0.005-0.946,0.06c-0.691,0.151-1.073,0.696-1.073,1.474c-0.002,3.515-0.001,7.029,0,10.544
			c0,0.07,0.008,0.14,0.013,0.212c0.064,0.003,0.104,0.007,0.145,0.007c3.628,0,7.257,0.001,10.886-0.002
			c0.146-0.001,0.296-0.019,0.438-0.054c0.525-0.131,1.037-0.623,1.034-1.471c-0.013-3.508-0.006-7.016-0.006-10.523
			c0-0.07,0-0.142,0-0.212c-1.129,0-2.229,0-3.347,0c0,1.17,0,2.321,0,3.48c-2.387,0-4.756,0-7.143,0
			C32.235,46.547,32.235,45.396,32.235,44.196z M38.041,47.069c0-0.956,0-1.897,0-2.845c-0.525,0-1.038,0-1.556,0
			c0,0.954,0,1.896,0,2.845C37.005,47.069,37.512,47.069,38.041,47.069z"/>
		<path fill-rule="evenodd" clip-rule="evenodd" d="M32.235,44.196c0,1.199,0,2.351,0,3.515c2.387,0,4.756,0,7.143,0
			c0-1.159,0-2.311,0-3.48c1.117,0,2.218,0,3.347,0c0,0.07,0,0.142,0,0.212c0,3.508-0.007,7.016,0.006,10.523
			c0.003,0.848-0.509,1.34-1.034,1.471c-0.142,0.035-0.292,0.053-0.438,0.054c-3.629,0.003-7.258,0.002-10.886,0.002
			c-0.04,0-0.08-0.004-0.145-0.007c-0.005-0.072-0.013-0.142-0.013-0.212c-0.001-3.515-0.002-7.029,0-10.544
			c0-0.777,0.382-1.322,1.073-1.474C31.584,44.191,31.899,44.215,32.235,44.196z M32.237,54.603c0.102,0,0.168,0,0.234,0
			c2.213,0,4.425,0,6.638,0c0.559,0,0.824-0.267,0.824-0.827c0-1.234,0-2.468,0-3.701c0-0.071,0-0.143,0-0.227
			c-0.096,0-0.162,0-0.229,0c-2.213,0-4.425-0.001-6.638,0c-0.583,0-0.829,0.247-0.83,0.832c0,1.228,0,2.454,0,3.682
			C32.237,54.434,32.237,54.506,32.237,54.603z"/>
		<path fill-rule="evenodd" clip-rule="evenodd" d="M38.041,47.069c-0.529,0-1.036,0-1.556,0c0-0.949,0-1.891,0-2.845
			c0.518,0,1.03,0,1.556,0C38.041,45.172,38.041,46.113,38.041,47.069z"/>
		<path fill-rule="evenodd" clip-rule="evenodd" fill="#FFFFFF" d="M32.237,54.603c0-0.097,0-0.169,0-0.241c0-1.228,0-2.454,0-3.682
			c0.001-0.585,0.247-0.832,0.83-0.832c2.213-0.001,4.425,0,6.638,0c0.066,0,0.133,0,0.229,0c0,0.084,0,0.155,0,0.227
			c0,1.233,0,2.467,0,3.701c0,0.561-0.266,0.827-0.824,0.827c-2.213,0-4.425,0-6.638,0C32.405,54.603,32.339,54.603,32.237,54.603z"
			/>
	</g>
</g>
</svg>
