<?xml version="1.0" encoding="utf-8"?>
<!-- Generator: Adobe Illustrator 16.0.0, SVG Export Plug-In . SVG Version: 6.00 Build 0)  -->
<!DOCTYPE svg PUBLIC "-//W3C//DTD SVG 1.1//EN" "http://www.w3.org/Graphics/SVG/1.1/DTD/svg11.dtd">
<svg version="1.1" id="Layer_1" xmlns="http://www.w3.org/2000/svg" xmlns:xlink="http://www.w3.org/1999/xlink" x="0px" y="0px"
	 width="32px" height="32px" viewBox="0 0 32 32" enable-background="new 0 0 32 32" xml:space="preserve">
<path fill="none" stroke="#000000" stroke-miterlimit="10" d="M12.658-8.663c0,1.789-1.45,3.239-3.239,3.239h-21.15
	c-1.789,0-3.239-1.45-3.239-3.239v-22.05c0-1.79,1.45-3.24,3.239-3.24h21.15c1.789,0,3.239,1.45,3.239,3.24V-8.663z"/>
<line fill="none" stroke="#000000" stroke-miterlimit="10" x1="-10.38" y1="-21.443" x2="-10.38" y2="-11.184"/>
<line fill="none" stroke="#000000" stroke-miterlimit="10" x1="7.979" y1="-11.184" x2="-10.38" y2="-11.184"/>
<line fill="none" stroke="#000000" stroke-miterlimit="10" x1="7.979" y1="-21.443" x2="7.979" y2="-11.184"/>
<line fill="none" stroke="#000000" stroke-miterlimit="10" x1="-10.38" y1="-21.443" x2="-1.201" y2="-30.623"/>
<line fill="none" stroke="#000000" stroke-miterlimit="10" x1="7.979" y1="-21.443" x2="-1.201" y2="-30.623"/>
<line fill="none" stroke="#000000" stroke-miterlimit="10" x1="-1.201" y1="-18.473" x2="7.979" y2="-11.184"/>
<line fill="none" stroke="#000000" stroke-miterlimit="10" x1="-10.38" y1="-11.184" x2="-1.201" y2="-18.473"/>
<line fill="none" stroke="#000000" stroke-miterlimit="10" x1="-10.38" y1="-21.443" x2="-3.051" y2="-17.006"/>
<line fill="none" stroke="#000000" stroke-miterlimit="10" x1="0.648" y1="-17.006" x2="7.979" y2="-21.443"/>
<path fill="none" stroke="#000000" stroke-miterlimit="10" d="M48.838-8.799c0,1.79-1.451,3.24-3.239,3.24h-21.15
	c-1.789,0-3.24-1.45-3.24-3.24v-22.049c0-1.789,1.451-3.24,3.24-3.24h21.15c1.788,0,3.239,1.451,3.239,3.24V-8.799z"/>
<circle fill="none" stroke="#000000" stroke-miterlimit="10" cx="35.023" cy="-26.103" r="1.479"/>
<path fill="none" stroke="#000000" stroke-miterlimit="10" d="M29.824-26.103c-0.807-2.756,2.328-5.199,5.2-5.199
	c2.87,0,6.004,2.443,5.197,5.199"/>
<line fill="none" stroke="#000000" stroke-miterlimit="10" x1="35.023" y1="-8.344" x2="40.222" y2="-26.103"/>
<line fill="none" stroke="#000000" stroke-miterlimit="10" x1="35.023" y1="-8.344" x2="29.824" y2="-26.103"/>
<path fill="none" stroke="#000000" stroke-miterlimit="10" d="M82.587-8.799c0,1.79-1.45,3.24-3.238,3.24h-21.15
	c-1.79,0-3.24-1.45-3.24-3.24v-22.049c0-1.789,1.45-3.24,3.24-3.24h21.15c1.788,0,3.238,1.451,3.238,3.24V-8.799z"/>
<path fill="none" stroke="#000000" stroke-miterlimit="10" d="M66.032-24.213c-1.357-0.503-2.255-1.37-2.255-2.354
	c0-1.555,2.237-2.815,4.996-2.815c2.758,0,4.994,1.26,4.994,2.815c0,0.985-0.896,1.851-2.254,2.354"/>
<line fill="none" stroke="#000000" stroke-miterlimit="10" x1="66.032" y1="-24.214" x2="66.032" y2="-18.082"/>
<line fill="none" stroke="#000000" stroke-miterlimit="10" x1="71.514" y1="-24.214" x2="71.514" y2="-18.082"/>
<line fill="none" stroke="#000000" stroke-miterlimit="10" x1="66.032" y1="-18.082" x2="63.777" y2="-15.922"/>
<line fill="none" stroke="#000000" stroke-miterlimit="10" x1="71.514" y1="-18.082" x2="73.768" y2="-15.922"/>
<line fill="none" stroke="#000000" stroke-miterlimit="10" x1="63.777" y1="-15.922" x2="73.768" y2="-15.922"/>
<line fill="none" stroke="#000000" stroke-miterlimit="10" x1="68.773" y1="-7.553" x2="69.718" y2="-15.922"/>
<line fill="none" stroke="#000000" stroke-miterlimit="10" x1="68.773" y1="-7.553" x2="67.918" y2="-15.922"/>
<path fill="none" stroke="#000000" stroke-miterlimit="10" d="M-60.012-8.663c0,1.789-1.452,3.239-3.241,3.239h-21.149
	c-1.789,0-3.24-1.45-3.24-3.239v-22.05c0-1.79,1.451-3.24,3.24-3.24h21.149c1.789,0,3.241,1.45,3.241,3.24V-8.663z"/>
<line fill="none" stroke="#000000" stroke-miterlimit="10" x1="-67.572" y1="-8.334" x2="-74.728" y2="-20.464"/>
<circle fill="none" stroke="#000000" stroke-miterlimit="10" cx="-77.023" cy="-24.818" r="4.995"/>
<path fill="none" stroke="#000000" stroke-miterlimit="10" d="M114.674-8.799c0,1.79-1.45,3.24-3.24,3.24H90.284
	c-1.79,0-3.24-1.45-3.24-3.24v-22.049c0-1.789,1.45-3.24,3.24-3.24h21.149c1.79,0,3.24,1.451,3.24,3.24V-8.799z"/>
<rect x="97.17" y="-31.433" fill="none" stroke="#000000" stroke-miterlimit="10" width="7.379" height="7.38"/>
<polyline fill="none" stroke="#000000" stroke-miterlimit="10" points="97.17,-15.638 92.849,-15.638 92.849,-24.008 
	108.869,-24.008 108.869,-15.638 104.549,-15.638 "/>
<rect x="97.17" y="-18.608" fill="none" stroke="#000000" stroke-miterlimit="10" width="7.379" height="5.939"/>
<path fill="none" stroke="#000000" stroke-miterlimit="10" d="M-23.721-8.663c0,1.789-1.451,3.239-3.241,3.239H-48.11
	c-1.789,0-3.24-1.45-3.24-3.239v-22.05c0-1.789,1.451-3.24,3.24-3.24h21.148c1.79,0,3.241,1.451,3.241,3.24V-8.663z"/>
<path fill="none" stroke="#000000" stroke-miterlimit="10" d="M-30.606-19.688c0,4.992-2.72,9.038-6.074,9.038
	c-1.544,0-6.075,0-6.075,0s0.001-6.344,0-9.038c0-4.991,2.72-9.038,6.075-9.038c1.803,0,6.074,0,6.074,0
	S-30.606-21.998-30.606-19.688z"/>
<line fill="none" stroke="#000000" stroke-miterlimit="10" x1="-39.898" y1="-24.683" x2="-32.991" y2="-24.683"/>
<line fill="none" stroke="#000000" stroke-miterlimit="10" x1="-39.898" y1="-22.748" x2="-32.991" y2="-22.748"/>
<line fill="none" stroke="#000000" stroke-miterlimit="10" x1="-39.898" y1="-20.813" x2="-32.991" y2="-20.813"/>
<line fill="none" stroke="#000000" stroke-miterlimit="10" x1="-39.898" y1="-18.877" x2="-32.991" y2="-18.877"/>
<line fill="none" stroke="#000000" stroke-miterlimit="10" x1="-39.898" y1="-16.966" x2="-32.991" y2="-16.966"/>
<line fill="none" stroke="#000000" stroke-miterlimit="10" x1="-39.898" y1="-15.053" x2="-32.991" y2="-15.053"/>
<path fill="none" stroke="#000000" stroke-miterlimit="10" d="M30.691,25.997c0,1.789-1.451,3.24-3.24,3.24H6.302
	c-1.79,0-3.241-1.451-3.241-3.24V3.948c0-1.79,1.451-3.24,3.241-3.24h21.149c1.789,0,3.24,1.45,3.24,3.24V25.997z"/>
<g>
	<g>
		<g>
			<path d="M25.243,14.973c0,0-0.012,0.242-0.035,0.695c-0.036,0.451-0.132,1.114-0.388,1.921c-0.252,0.808-0.719,1.744-1.457,2.665
				c-0.74,0.918-1.801,1.78-3.124,2.378c-1.325,0.57-2.937,0.873-4.585,0.609c-1.648-0.219-3.308-1.017-4.613-2.277
				c-1.286-1.271-2.235-3.008-2.454-4.909c-0.244-1.888,0.155-3.897,1.21-5.528c1.031-1.635,2.636-2.912,4.453-3.494
				c1.811-0.59,3.79-0.553,5.488,0.087c1.719,0.604,3.119,1.796,4.063,3.158c0.076,0.124,0.147,0.241,0.214,0.35
				c0.258,0.395,0.376,0.687,0.376,0.687s-0.441,0.027-0.865,0.086c-0.436,0.062-0.86,0.158-0.86,0.158
				c1.192,0.684,2.215,1.873,2.895,3.415c0.626-1.532,0.898-3.452,0.47-5.404c0,0-0.239,0.391-0.505,0.754
				c-0.273,0.373-0.563,0.713-0.563,0.713s-0.129-0.313-0.404-0.738c-0.071-0.116-0.149-0.242-0.231-0.375
				c-1.015-1.467-2.521-2.746-4.37-3.399C18.126,5.836,16,5.795,14.051,6.43c-1.956,0.628-3.682,2-4.791,3.759
				c-1.134,1.756-1.565,3.92-1.303,5.947c0.237,2.046,1.258,3.917,2.642,5.282c1.403,1.356,3.19,2.215,4.964,2.45
				c1.771,0.282,3.505-0.041,4.932-0.656c1.426-0.643,2.564-1.571,3.36-2.557c0.795-0.99,1.296-1.999,1.568-2.868
				c0.276-0.868,0.378-1.582,0.417-2.067c0.024-0.487,0.038-0.747,0.038-0.747H25.243z"/>
		</g>
	</g>
</g>
<g>
	<g>
		<g>
			<path d="M8.509,14.973c0,0,0.012-0.242,0.035-0.695c0.036-0.451,0.132-1.114,0.388-1.921c0.252-0.808,0.719-1.745,1.457-2.666
				c0.74-0.917,1.8-1.779,3.124-2.377c1.325-0.57,2.937-0.873,4.585-0.609c1.648,0.219,3.308,1.017,4.612,2.277
				c1.286,1.271,2.236,3.008,2.455,4.909c0.244,1.888-0.155,3.897-1.21,5.528c-1.031,1.635-2.636,2.912-4.453,3.494
				c-1.811,0.59-3.79,0.553-5.488-0.086c-1.719-0.605-3.119-1.797-4.063-3.159c-0.076-0.124-0.148-0.241-0.215-0.35
				c-0.257-0.395-0.375-0.687-0.375-0.687s0.441-0.027,0.865-0.086c0.436-0.062,0.86-0.158,0.86-0.158
				c-1.192-0.684-2.215-1.873-2.895-3.415c-0.626,1.532-0.898,3.452-0.47,5.404c0,0,0.238-0.391,0.505-0.754
				C8.499,19.25,8.79,18.91,8.79,18.91s0.129,0.313,0.404,0.738c0.071,0.116,0.149,0.242,0.23,0.375
				c1.016,1.467,2.521,2.746,4.371,3.399c1.83,0.687,3.955,0.728,5.905,0.093c1.956-0.628,3.682-2,4.791-3.759
				c1.133-1.756,1.565-3.92,1.302-5.947c-0.236-2.046-1.257-3.917-2.641-5.282c-1.403-1.356-3.19-2.215-4.964-2.45
				c-1.771-0.282-3.505,0.041-4.932,0.656c-1.426,0.642-2.564,1.57-3.36,2.557c-0.795,0.99-1.296,1.999-1.568,2.868
				c-0.276,0.868-0.378,1.582-0.417,2.067c-0.024,0.487-0.038,0.747-0.038,0.747H8.509z"/>
		</g>
	</g>
</g>
<rect x="6.766" y="13.622" fill="#FFFFFF" stroke="#FFFFFF" stroke-miterlimit="10" width="2.745" height="1.621"/>
<rect x="24.405" y="14.657" fill="#FFFFFF" stroke="#FFFFFF" stroke-miterlimit="10" width="2.746" height="1.62"/>
<g>
	<g>
		<path fill-rule="evenodd" clip-rule="evenodd" fill="#FFFFFF" d="M-33.457,30.013c0-9.655,0-19.311,0-28.971
			c9.668,0,19.34,0,29.021,0c0,9.652,0,19.312,0,28.971C-14.103,30.013-23.778,30.013-33.457,30.013z M-24.819,6.432
			c-0.473,0.026-0.916-0.007-1.332,0.085c-0.972,0.213-1.509,0.979-1.509,2.072c-0.002,4.942-0.001,9.885,0,14.827
			c0,0.099,0.012,0.197,0.019,0.299c0.09,0.004,0.146,0.009,0.202,0.009c5.103,0,10.206,0.001,15.309-0.003
			c0.206,0,0.416-0.025,0.615-0.075c0.739-0.184,1.459-0.876,1.454-2.067c-0.017-4.934-0.007-9.866-0.007-14.8
			c0-0.1,0-0.199,0-0.299c-1.588,0-3.137,0-4.707,0c0,1.646,0,3.264,0,4.896c-3.356,0-6.688,0-10.044,0
			C-24.819,9.737-24.819,8.118-24.819,6.432z M-16.656,10.473c0-1.345,0-2.669,0-4.001c-0.738,0-1.459,0-2.187,0
			c0,1.342,0,2.666,0,4.001C-18.113,10.473-17.399,10.473-16.656,10.473z"/>
		<path fill-rule="evenodd" clip-rule="evenodd" d="M-24.819,6.432c0,1.687,0,3.306,0,4.943c3.355,0,6.688,0,10.044,0
			c0-1.632,0-3.25,0-4.896c1.57,0,3.119,0,4.707,0c0,0.1,0,0.199,0,0.299c0,4.934-0.01,9.866,0.007,14.8
			c0.005,1.191-0.715,1.884-1.454,2.067c-0.199,0.05-0.409,0.075-0.615,0.075c-5.103,0.004-10.206,0.003-15.309,0.003
			c-0.056,0-0.112-0.005-0.202-0.009c-0.007-0.102-0.019-0.2-0.019-0.299c-0.001-4.942-0.002-9.885,0-14.827
			c0-1.094,0.537-1.859,1.509-2.072C-25.735,6.425-25.292,6.458-24.819,6.432z M-24.817,21.066c0.143,0,0.236,0,0.329,0
			c3.112,0,6.224,0.001,9.336,0c0.785,0,1.157-0.375,1.158-1.163c0.001-1.735,0-3.471,0-5.205c0-0.101,0-0.2,0-0.319
			c-0.134,0-0.228,0-0.32,0c-3.112,0-6.224-0.001-9.336,0.001c-0.82,0-1.166,0.348-1.167,1.17c-0.001,1.726,0,3.451,0,5.177
			C-24.817,20.828-24.817,20.93-24.817,21.066z"/>
		<path fill-rule="evenodd" clip-rule="evenodd" d="M-16.656,10.473c-0.743,0-1.457,0-2.187,0c0-1.335,0-2.659,0-4.001
			c0.728,0,1.449,0,2.187,0C-16.656,7.804-16.656,9.128-16.656,10.473z"/>
		<path fill-rule="evenodd" clip-rule="evenodd" fill="#FFFFFF" d="M-24.817,21.066c0-0.137,0-0.238,0-0.34c0-1.726,0-3.451,0-5.177
			c0-0.822,0.347-1.17,1.167-1.17c3.112-0.002,6.224-0.001,9.336-0.001c0.093,0,0.187,0,0.32,0c0,0.119,0,0.219,0,0.319
			c0,1.734,0.001,3.47,0,5.205c-0.001,0.788-0.373,1.163-1.158,1.163c-3.112,0.001-6.224,0-9.336,0
			C-24.581,21.066-24.674,21.066-24.817,21.066z"/>
	</g>
</g>
<path fill="#010101" d="M-31.708-10.182c0,0.47-0.191,0.85-0.425,0.85l0,0c-0.235,0-0.426-0.38-0.426-0.85v-4.972
	c0-0.47,0.19-0.851,0.426-0.851l0,0c0.233,0,0.425,0.381,0.425,0.851V-10.182z"/>
<path fill="#010101" d="M-34.131-12.477c-0.385,0-0.695-0.139-0.695-0.308l0,0c0-0.171,0.311-0.309,0.695-0.309h4.074
	c0.385,0,0.697,0.138,0.697,0.309l0,0c0,0.169-0.313,0.308-0.697,0.308H-34.131z"/>
<path fill="none" stroke="#000000" stroke-miterlimit="10" d="M-4.929,25.998c0,1.789-1.45,3.239-3.241,3.239h-21.148
	c-1.789,0-3.24-1.45-3.24-3.239V3.948c0-1.79,1.451-3.24,3.24-3.24H-8.17c1.791,0,3.241,1.45,3.241,3.24V25.998z"/>
</svg>
