<?xml version="1.0" encoding="utf-8"?>
<!-- Generator: Adobe Illustrator 16.0.0, SVG Export Plug-In . SVG Version: 6.00 Build 0)  -->
<!DOCTYPE svg PUBLIC "-//W3C//DTD SVG 1.1//EN" "http://www.w3.org/Graphics/SVG/1.1/DTD/svg11.dtd">
<svg version="1.1" id="Layer_1" xmlns="http://www.w3.org/2000/svg" xmlns:xlink="http://www.w3.org/1999/xlink" x="0px" y="0px"
	 width="32px" height="32px" viewBox="0 0 32 32" enable-background="new 0 0 32 32" xml:space="preserve">
<path fill="none" stroke="#000000" stroke-miterlimit="10" d="M-22.078-7.935c0,1.789-1.449,3.238-3.238,3.238h-21.15
	c-1.789,0-3.239-1.449-3.239-3.238v-22.051c0-1.79,1.45-3.24,3.239-3.24h21.15c1.789,0,3.238,1.45,3.238,3.24V-7.935z"/>
<line fill="none" stroke="#000000" stroke-miterlimit="10" x1="-45.116" y1="-20.716" x2="-45.116" y2="-10.456"/>
<line fill="none" stroke="#000000" stroke-miterlimit="10" x1="-26.757" y1="-10.456" x2="-45.116" y2="-10.456"/>
<line fill="none" stroke="#000000" stroke-miterlimit="10" x1="-26.757" y1="-20.716" x2="-26.757" y2="-10.456"/>
<line fill="none" stroke="#000000" stroke-miterlimit="10" x1="-45.116" y1="-20.716" x2="-35.937" y2="-29.895"/>
<line fill="none" stroke="#000000" stroke-miterlimit="10" x1="-26.757" y1="-20.716" x2="-35.937" y2="-29.895"/>
<line fill="none" stroke="#000000" stroke-miterlimit="10" x1="-35.937" y1="-17.745" x2="-26.757" y2="-10.456"/>
<line fill="none" stroke="#000000" stroke-miterlimit="10" x1="-45.116" y1="-10.456" x2="-35.937" y2="-17.745"/>
<line fill="none" stroke="#000000" stroke-miterlimit="10" x1="-45.116" y1="-20.716" x2="-37.787" y2="-16.278"/>
<line fill="none" stroke="#000000" stroke-miterlimit="10" x1="-34.086" y1="-16.278" x2="-26.757" y2="-20.716"/>
<path fill="none" stroke="#000000" stroke-miterlimit="10" d="M14.103-8.071c0,1.79-1.451,3.24-3.239,3.24h-21.15
	c-1.789,0-3.239-1.45-3.239-3.24V-30.12c0-1.789,1.45-3.24,3.239-3.24h21.15c1.788,0,3.239,1.451,3.239,3.24V-8.071z"/>
<circle fill="none" stroke="#000000" stroke-miterlimit="10" cx="0.289" cy="-25.375" r="1.479"/>
<path fill="none" stroke="#000000" stroke-miterlimit="10" d="M-4.912-25.375c-0.807-2.756,2.328-5.199,5.201-5.199
	c2.869,0,6.004,2.443,5.196,5.199"/>
<line fill="none" stroke="#000000" stroke-miterlimit="10" x1="0.289" y1="-7.616" x2="5.486" y2="-25.375"/>
<line fill="none" stroke="#000000" stroke-miterlimit="10" x1="0.289" y1="-7.616" x2="-4.912" y2="-25.375"/>
<path fill="none" stroke="#000000" stroke-miterlimit="10" d="M47.852-8.071c0,1.79-1.45,3.24-3.238,3.24h-21.15
	c-1.789,0-3.24-1.45-3.24-3.24V-30.12c0-1.789,1.451-3.24,3.24-3.24h21.15c1.788,0,3.238,1.451,3.238,3.24V-8.071z"/>
<path fill="none" stroke="#000000" stroke-miterlimit="10" d="M31.297-23.486c-1.357-0.503-2.256-1.37-2.256-2.354
	c0-1.555,2.237-2.815,4.996-2.815c2.758,0,4.994,1.26,4.994,2.815c0,0.985-0.896,1.851-2.254,2.354"/>
<line fill="none" stroke="#000000" stroke-miterlimit="10" x1="31.297" y1="-23.487" x2="31.297" y2="-17.354"/>
<line fill="none" stroke="#000000" stroke-miterlimit="10" x1="36.778" y1="-23.487" x2="36.778" y2="-17.354"/>
<line fill="none" stroke="#000000" stroke-miterlimit="10" x1="31.297" y1="-17.354" x2="29.043" y2="-15.194"/>
<line fill="none" stroke="#000000" stroke-miterlimit="10" x1="36.778" y1="-17.354" x2="39.032" y2="-15.194"/>
<line fill="none" stroke="#000000" stroke-miterlimit="10" x1="29.043" y1="-15.194" x2="39.032" y2="-15.194"/>
<line fill="none" stroke="#000000" stroke-miterlimit="10" x1="34.039" y1="-6.825" x2="34.982" y2="-15.194"/>
<line fill="none" stroke="#000000" stroke-miterlimit="10" x1="34.039" y1="-6.825" x2="33.183" y2="-15.194"/>
<path fill="none" stroke="#000000" stroke-miterlimit="10" d="M-94.747-7.935c0,1.789-1.452,3.238-3.241,3.238h-21.149
	c-1.789,0-3.24-1.449-3.24-3.238v-22.051c0-1.79,1.451-3.24,3.24-3.24h21.149c1.789,0,3.241,1.45,3.241,3.24V-7.935z"/>
<line fill="none" stroke="#000000" stroke-miterlimit="10" x1="-102.308" y1="-7.606" x2="-109.462" y2="-19.736"/>
<circle fill="none" stroke="#000000" stroke-miterlimit="10" cx="-111.759" cy="-24.091" r="4.995"/>
<path fill="none" stroke="#000000" stroke-miterlimit="10" d="M79.938-8.071c0,1.79-1.45,3.24-3.24,3.24H55.549
	c-1.789,0-3.239-1.45-3.239-3.24V-30.12c0-1.789,1.45-3.24,3.239-3.24h21.149c1.79,0,3.24,1.451,3.24,3.24V-8.071z"/>
<rect x="62.435" y="-30.705" fill="none" stroke="#000000" stroke-miterlimit="10" width="7.379" height="7.38"/>
<polyline fill="none" stroke="#000000" stroke-miterlimit="10" points="62.435,-14.91 58.113,-14.91 58.113,-23.28 74.133,-23.28 
	74.133,-14.91 69.813,-14.91 "/>
<rect x="62.435" y="-17.882" fill="none" stroke="#000000" stroke-miterlimit="10" width="7.379" height="5.939"/>
<path fill="none" stroke="#000000" stroke-miterlimit="10" d="M-58.456-7.935c0,1.789-1.451,3.238-3.241,3.238h-21.148
	c-1.789,0-3.24-1.449-3.24-3.238v-22.051c0-1.789,1.451-3.24,3.24-3.24h21.148c1.79,0,3.241,1.451,3.241,3.24V-7.935z"/>
<path fill="none" stroke="#000000" stroke-miterlimit="10" d="M-65.342-18.96c0,4.993-2.72,9.038-6.074,9.038
	c-1.544,0-6.075,0-6.075,0s0.001-6.344,0-9.038c0-4.991,2.72-9.038,6.075-9.038c1.803,0,6.074,0,6.074,0S-65.342-21.27-65.342-18.96
	z"/>
<line fill="none" stroke="#000000" stroke-miterlimit="10" x1="-74.634" y1="-23.955" x2="-67.727" y2="-23.955"/>
<line fill="none" stroke="#000000" stroke-miterlimit="10" x1="-74.634" y1="-22.02" x2="-67.727" y2="-22.02"/>
<line fill="none" stroke="#000000" stroke-miterlimit="10" x1="-74.634" y1="-20.085" x2="-67.727" y2="-20.085"/>
<line fill="none" stroke="#000000" stroke-miterlimit="10" x1="-74.634" y1="-18.149" x2="-67.727" y2="-18.149"/>
<line fill="none" stroke="#000000" stroke-miterlimit="10" x1="-74.634" y1="-16.238" x2="-67.727" y2="-16.238"/>
<line fill="none" stroke="#000000" stroke-miterlimit="10" x1="-74.634" y1="-14.325" x2="-67.727" y2="-14.325"/>
<path fill="none" stroke="#000000" stroke-miterlimit="10" d="M-4.043,26.725c0,1.789-1.451,3.24-3.24,3.24h-21.15
	c-1.79,0-3.241-1.451-3.241-3.24V4.676c0-1.79,1.451-3.24,3.241-3.24h21.148c1.789,0,3.24,1.45,3.24,3.24v22.049H-4.043z"/>
<g>
	<g>
		<g>
			<path d="M-9.492,15.7c0,0-0.012,0.242-0.035,0.695c-0.036,0.45-0.133,1.113-0.389,1.92c-0.252,0.809-0.719,1.744-1.457,2.666
				c-0.74,0.918-1.801,1.779-3.123,2.377c-1.326,0.57-2.938,0.873-4.586,0.609c-1.647-0.219-3.308-1.018-4.613-2.277
				c-1.285-1.271-2.234-3.008-2.453-4.908c-0.244-1.889,0.154-3.897,1.21-5.528c1.03-1.636,2.636-2.912,4.452-3.494
				c1.812-0.59,3.791-0.554,5.488,0.087c1.719,0.604,3.119,1.796,4.063,3.158c0.076,0.124,0.147,0.24,0.214,0.35
				c0.258,0.395,0.376,0.688,0.376,0.688s-0.44,0.027-0.864,0.086c-0.437,0.063-0.861,0.158-0.861,0.158
				c1.193,0.684,2.216,1.873,2.896,3.414c0.626-1.531,0.897-3.451,0.47-5.403c0,0-0.238,0.392-0.504,0.754
				c-0.273,0.373-0.563,0.713-0.563,0.713s-0.13-0.313-0.404-0.737c-0.071-0.117-0.149-0.242-0.231-0.375
				c-1.014-1.468-2.521-2.746-4.369-3.399c-1.83-0.687-3.956-0.728-5.905-0.093c-1.956,0.627-3.683,2-4.791,3.759
				c-1.134,1.756-1.565,3.92-1.304,5.946c0.238,2.047,1.259,3.918,2.643,5.283c1.403,1.355,3.189,2.215,4.965,2.449
				c1.771,0.282,3.504-0.041,4.932-0.656c1.426-0.643,2.563-1.57,3.359-2.557c0.795-0.99,1.297-1.999,1.568-2.868
				c0.275-0.868,0.378-1.582,0.417-2.067c0.024-0.486,0.038-0.746,0.038-0.746h-0.637V15.7z"/>
		</g>
	</g>
</g>
<g>
	<g>
		<g>
			<path d="M-26.227,15.7c0,0,0.012-0.242,0.035-0.695c0.035-0.451,0.132-1.114,0.388-1.922c0.252-0.807,0.72-1.744,1.457-2.666
				c0.74-0.916,1.8-1.778,3.124-2.377c1.325-0.569,2.938-0.873,4.585-0.608c1.647,0.22,3.308,1.017,4.612,2.276
				c1.285,1.271,2.236,3.009,2.455,4.91c0.244,1.888-0.155,3.896-1.211,5.527c-1.03,1.635-2.635,2.912-4.452,3.494
				c-1.812,0.59-3.79,0.553-5.488-0.086c-1.719-0.605-3.119-1.797-4.063-3.158c-0.076-0.125-0.147-0.242-0.215-0.351
				c-0.257-0.396-0.375-0.687-0.375-0.687s0.441-0.027,0.865-0.086c0.436-0.063,0.86-0.158,0.86-0.158
				c-1.192-0.685-2.216-1.873-2.896-3.416c-0.625,1.533-0.897,3.453-0.47,5.404c0,0,0.238-0.391,0.505-0.754
				c0.271-0.373,0.563-0.713,0.563-0.713s0.13,0.313,0.404,0.738c0.071,0.115,0.149,0.242,0.23,0.375
				c1.016,1.467,2.521,2.746,4.371,3.398c1.83,0.688,3.955,0.729,5.904,0.094c1.957-0.629,3.683-2,4.791-3.76
				c1.133-1.756,1.565-3.92,1.303-5.947c-0.236-2.045-1.258-3.916-2.641-5.281c-1.404-1.355-3.19-2.215-4.965-2.45
				c-1.771-0.282-3.505,0.041-4.932,0.655c-1.426,0.643-2.564,1.57-3.36,2.558c-0.795,0.99-1.296,1.999-1.567,2.868
				c-0.276,0.868-0.379,1.582-0.418,2.066c-0.023,0.488-0.037,0.748-0.037,0.748h0.637V15.7z"/>
		</g>
	</g>
</g>
<rect x="-27.97" y="14.35" fill="#FFFFFF" stroke="#FFFFFF" stroke-miterlimit="10" width="2.745" height="1.621"/>
<rect x="-10.33" y="15.385" fill="#FFFFFF" stroke="#FFFFFF" stroke-miterlimit="10" width="2.746" height="1.62"/>
<path fill="#010101" d="M-66.444-9.454c0,0.47-0.191,0.85-0.425,0.85l0,0c-0.235,0-0.426-0.38-0.426-0.85v-4.973
	c0-0.469,0.19-0.851,0.426-0.851l0,0c0.233,0,0.425,0.382,0.425,0.851V-9.454z"/>
<path fill="#010101" d="M-68.867-11.749c-0.385,0-0.695-0.139-0.695-0.309l0,0c0-0.17,0.311-0.309,0.695-0.309h4.074
	c0.385,0,0.697,0.139,0.697,0.309l0,0c0,0.17-0.313,0.309-0.697,0.309H-68.867z"/>
<path fill="none" stroke="#000000" stroke-miterlimit="10" d="M-39.664,26.726c0,1.789-1.45,3.239-3.241,3.239h-21.148
	c-1.789,0-3.24-1.45-3.24-3.239V4.676c0-1.79,1.451-3.239,3.24-3.239h21.147c1.791,0,3.241,1.449,3.241,3.239L-39.664,26.726
	L-39.664,26.726z"/>
<g>
	<g>
		<path fill="#FFFFFF" d="M-62.618,26.266c0-6.864,0-13.729,0-20.601c6.875,0,13.753,0,20.637,0c0,6.863,0,13.732,0,20.601
			C-48.854,26.266-55.734,26.266-62.618,26.266z M-56.476,9.497c-0.336,0.02-0.651-0.004-0.946,0.061
			c-0.691,0.15-1.073,0.696-1.073,1.475c-0.002,3.515-0.001,7.028,0,10.543c0,0.07,0.008,0.141,0.013,0.213
			c0.064,0.002,0.104,0.007,0.145,0.007c3.628,0,7.257,0.001,10.886-0.002c0.146-0.001,0.296-0.019,0.438-0.054
			c0.525-0.131,1.037-0.623,1.034-1.472c-0.013-3.508-0.006-7.016-0.006-10.522c0-0.07,0-0.143,0-0.213c-1.129,0-2.229,0-3.347,0
			c0,1.17,0,2.322,0,3.48c-2.387,0-4.756,0-7.143,0C-56.476,11.849-56.476,10.698-56.476,9.497z M-50.669,12.37
			c0-0.955,0-1.896,0-2.844c-0.525,0-1.038,0-1.556,0c0,0.953,0,1.896,0,2.844C-51.706,12.37-51.2,12.37-50.669,12.37z"/>
		<path d="M-56.476,9.497c0,1.199,0,2.352,0,3.516c2.387,0,4.756,0,7.143,0c0-1.158,0-2.311,0-3.48c1.117,0,2.218,0,3.347,0
			c0,0.07,0,0.143,0,0.213c0,3.508-0.007,7.016,0.006,10.522c0.003,0.849-0.509,1.341-1.034,1.472
			c-0.142,0.035-0.292,0.053-0.438,0.054c-3.629,0.003-7.258,0.002-10.886,0.002c-0.04,0-0.08-0.005-0.145-0.007
			c-0.005-0.072-0.013-0.143-0.013-0.213c-0.001-3.515-0.002-7.028,0-10.543c0-0.777,0.382-1.322,1.073-1.475
			C-57.126,9.493-56.812,9.517-56.476,9.497z M-56.474,19.905c0.102,0,0.168,0,0.234,0c2.213,0,4.425,0,6.638,0
			c0.559,0,0.824-0.268,0.824-0.828c0-1.233,0-2.467,0-3.7c0-0.071,0-0.144,0-0.228c-0.096,0-0.162,0-0.229,0
			c-2.213,0-4.425,0-6.638,0c-0.583,0-0.829,0.248-0.83,0.832c0,1.229,0,2.454,0,3.682C-56.474,19.735-56.474,19.808-56.474,19.905z
			"/>
		<path d="M-50.669,12.37c-0.529,0-1.036,0-1.556,0c0-0.948,0-1.891,0-2.844c0.518,0,1.03,0,1.556,0
			C-50.669,10.474-50.669,11.415-50.669,12.37z"/>
		<path fill="#FFFFFF" d="M-56.474,19.905c0-0.098,0-0.17,0-0.242c0-1.228,0-2.453,0-3.682c0.001-0.584,0.247-0.832,0.83-0.832
			c2.213,0,4.425,0,6.638,0c0.066,0,0.133,0,0.229,0c0,0.084,0,0.155,0,0.228c0,1.233,0,2.467,0,3.7
			c0,0.562-0.266,0.828-0.824,0.828c-2.213,0-4.425,0-6.638,0C-56.306,19.905-56.372,19.905-56.474,19.905z"/>
	</g>
</g>
<path fill="none" stroke="#000000" stroke-miterlimit="10" d="M29.482,27.252c0,1.794-1.455,3.25-3.251,3.25H5.019
	c-1.797,0-3.251-1.456-3.251-3.25V5.136c0-1.795,1.454-3.249,3.251-3.249h21.213c1.794,0,3.25,1.454,3.25,3.249L29.482,27.252
	L29.482,27.252z"/>
<circle fill="none" stroke="#000000" stroke-width="4" stroke-miterlimit="10" cx="15.625" cy="15.873" r="6.806"/>
<line fill="none" stroke="#000000" stroke-width="4" stroke-miterlimit="10" x1="15.625" y1="4.256" x2="15.625" y2="8.518"/>
<line fill="none" stroke="#000000" stroke-width="4" stroke-miterlimit="10" x1="15.625" y1="23.085" x2="15.625" y2="27.348"/>
<line fill="none" stroke="#000000" stroke-width="4" stroke-miterlimit="10" x1="27.688" y1="15.839" x2="23.426" y2="15.839"/>
<line fill="none" stroke="#000000" stroke-width="4" stroke-miterlimit="10" x1="7.856" y1="15.839" x2="3.593" y2="15.839"/>
<line fill="none" stroke="#000000" stroke-width="4" stroke-miterlimit="10" x1="23.938" y1="7.56" x2="20.924" y2="10.576"/>
<line fill="none" stroke="#000000" stroke-width="4" stroke-miterlimit="10" x1="10.475" y1="21.61" x2="7.459" y2="24.626"/>
<line fill="none" stroke="#000000" stroke-width="4" stroke-miterlimit="10" x1="7.459" y1="7.71" x2="10.475" y2="10.725"/>
<line fill="none" stroke="#000000" stroke-width="4" stroke-miterlimit="10" x1="20.774" y1="21.024" x2="23.79" y2="24.038"/>
</svg>
